<svg xmlns="http://www.w3.org/2000/svg" width="560" height="420" viewBox="0 0 560 420" role="img" aria-labelledby="title desc">
  <title id="title">ヒーローイメージのプレースホルダー</title>
  <desc id="desc">抽象的な幾何学模様の背景</desc>
  <defs>
    <linearGradient id="gradient" x1="0%" y1="0%" x2="100%" y2="100%">
      <stop offset="0%" stop-color="#4f46e5" />
      <stop offset="100%" stop-color="#ec4899" />
    </linearGradient>
    <pattern id="grid" width="40" height="40" patternUnits="userSpaceOnUse">
      <path d="M0 0h40v40H0z" fill="none" stroke="rgba(255,255,255,0.2)" />
      <circle cx="20" cy="20" r="4" fill="rgba(255,255,255,0.4)" />
    </pattern>
  </defs>
  <rect width="560" height="420" rx="32" fill="url(#gradient)" />
  <rect width="520" height="380" x="20" y="20" rx="24" fill="url(#grid)" />
  <g fill="#fff" fill-opacity="0.9">
    <path d="M280 120c-44 0-80 36-80 80s36 80 80 80 80-36 80-80-36-80-80-80zm0 140a60 60 0 1 1 0-120 60 60 0 0 1 0 120z" />
    <path d="M280 160c-22 0-40 18-40 40s18 40 40 40 40-18 40-40-18-40-40-40zm0 60a20 20 0 1 1 0-40 20 20 0 0 1 0 40z" />
  </g>
</svg>
